<svg id="Capa_1" enable-background="new 0 0 512 512" height="512" viewBox="0 0 512 512" width="512" xmlns="http://www.w3.org/2000/svg"><g><path d="m489.5 116.455h-59.87c-4.142 0-7.5 3.358-7.5 7.5s3.358 7.5 7.5 7.5h59.87c4.136 0 7.5 3.365 7.5 7.5v163.37h-16.1v-147.27c0-4.142-3.358-7.5-7.5-7.5h-217.36c-4.142 0-7.5 3.358-7.5 7.5v107.93c0 4.142 3.358 7.5 7.5 7.5s7.5-3.358 7.5-7.5v-100.43h202.36v139.77h-202.36v-6.65c0-4.142-3.358-7.5-7.5-7.5s-7.5 3.358-7.5 7.5v6.65h-16.102l.002-163.37c0-4.136 3.364-7.5 7.5-7.5h157c4.142 0 7.5-3.358 7.5-7.5s-3.358-7.5-7.5-7.5h-157c-12.407 0-22.5 10.093-22.5 22.5v8.62h-16.064v-8.028c0-12.699-10.332-23.031-23.031-23.031s-23.031 10.332-23.031 23.031v8.028h-21.984c-15.175 0-28.931 9.81-34.23 24.412l-37.211 102.523-30.18 20.796c-10.092 6.944-16.179 18.664-16.179 31.139v68.9h-8.03c-4.142 0-7.5 3.358-7.5 7.5v31.79c0 4.142 3.358 7.5 7.5 7.5h59.786c8.666 18.341 27.338 31.066 48.933 31.066s40.268-12.725 48.934-31.066h43.436c4.142 0 7.5-3.358 7.5-7.5s-3.358-7.5-7.5-7.5h-38.875c.837-5.6.797-11.197-.121-16.79h174.785c-.918 5.593-.958 11.19-.121 16.79h-102.977c-4.142 0-7.5 3.358-7.5 7.5s3.358 7.5 7.5 7.5h107.538c8.666 18.341 27.338 31.066 48.933 31.066s40.267-12.725 48.933-31.066h57.816c4.142 0 7.5-3.358 7.5-7.5v-295.68c0-12.407-10.093-22.5-22.5-22.5zm-319.187 23.092c0-4.428 3.603-8.031 8.031-8.031s8.031 3.603 8.031 8.031v8.028h-16.062zm-63.115 54.094h79.177v78.187h-107.551zm-44.473 233.494h-47.725v-16.79h47.847c-.918 5.593-.959 11.19-.122 16.79zm53.495 31.066c-21.556 0-39.093-17.538-39.093-39.094s17.537-39.093 39.093-39.093 39.094 17.537 39.094 39.093-17.538 39.094-39.094 39.094zm101.218-62.856h-52.637c-8.814-17.946-27.276-30.331-48.581-30.331s-39.767 12.385-48.581 30.331h-37.109v-46.95h186.908zm0-61.95h-186.908c-.313-5.018-.027-11.648 1.848-16.07h185.06zm0-31.07h-169.479l22.491-15.498h123.425c4.142 0 7.5-3.358 7.5-7.5v-93.187c0-4.142-3.358-7.5-7.5-7.5h-81.234c3.365-8.429 10.887-16.066 20.688-16.066h84.108v139.751zm15 15h264.562v16.07h-264.562zm0 78.02v-46.95h264.562v46.95h-50.668c-8.814-17.946-27.275-30.331-48.581-30.331s-39.767 12.385-48.581 30.331zm165.313 62.856c-21.556 0-39.093-17.538-39.093-39.094s17.537-39.093 39.093-39.093 39.093 17.537 39.093 39.093-17.537 39.094-39.093 39.094zm99.249-31.066h-45.755c.837-5.6.797-11.197-.121-16.79h45.876z"/><path d="m380.249 178.641h-31.063c-4.142 0-7.5 3.358-7.5 7.5v23.562h-23.562c-4.142 0-7.5 3.358-7.5 7.5v31.063c0 4.142 3.358 7.5 7.5 7.5h23.562v23.562c0 4.142 3.358 7.5 7.5 7.5h31.063c4.142 0 7.5-3.358 7.5-7.5v-23.562h23.562c4.142 0 7.5-3.358 7.5-7.5v-31.063c0-4.142-3.358-7.5-7.5-7.5h-23.562v-23.562c0-4.142-3.358-7.5-7.5-7.5zm23.562 46.062v16.063h-23.562c-4.142 0-7.5 3.358-7.5 7.5v23.562h-16.063v-23.562c0-4.142-3.358-7.5-7.5-7.5h-23.562v-16.063h23.562c4.142 0 7.5-3.358 7.5-7.5v-23.562h16.063v23.562c0 4.142 3.358 7.5 7.5 7.5z"/><path d="m178.344 84.861c4.142 0 7.5-3.358 7.5-7.5v-31.062c0-4.142-3.358-7.5-7.5-7.5s-7.5 3.358-7.5 7.5v31.062c0 4.142 3.358 7.5 7.5 7.5z"/><path d="m132.208 105.037c1.464 1.464 3.384 2.197 5.303 2.197s3.839-.732 5.303-2.197c2.929-2.929 2.929-7.678 0-10.606l-21.964-21.965c-2.929-2.929-7.678-2.929-10.606 0-2.929 2.929-2.929 7.678 0 10.606z"/><path d="m218.199 107.233c1.919 0 3.839-.732 5.303-2.197l21.964-21.964c2.929-2.929 2.929-7.678 0-10.606-2.929-2.929-7.678-2.929-10.606 0l-21.964 21.964c-2.929 2.929-2.929 7.678 0 10.606 1.464 1.465 3.384 2.197 5.303 2.197z"/><path d="m116.22 396.076c-12.699 0-23.031 10.332-23.031 23.031 0 12.7 10.332 23.031 23.031 23.031 12.7 0 23.031-10.332 23.031-23.031s-10.332-23.031-23.031-23.031zm0 31.062c-4.428 0-8.031-3.603-8.031-8.031s3.603-8.031 8.031-8.031 8.031 3.603 8.031 8.031-3.603 8.031-8.031 8.031z"/><path d="m397.751 396.076c-12.7 0-23.031 10.332-23.031 23.031 0 12.7 10.332 23.031 23.031 23.031s23.031-10.332 23.031-23.031-10.331-23.031-23.031-23.031zm0 31.062c-4.428 0-8.031-3.603-8.031-8.031s3.603-8.031 8.031-8.031 8.031 3.603 8.031 8.031-3.603 8.031-8.031 8.031z"/></g></svg>