<svg id="Capa_1" enable-background="new 0 0 512 512" height="512" viewBox="0 0 512 512" width="512" xmlns="http://www.w3.org/2000/svg"><g><path d="m104 262.591c0 15.879 5.189 30.542 13.955 42.4h276.089c8.766-11.859 13.955-26.522 13.955-42.4v-153.453h-303.999z" fill="#f3f0f3"/><g><g fill="#fe9901"><path d="m369.93 63.211c-16.334-33.009-50.35-55.711-89.674-55.711h-48.511c-39.324 0-73.34 22.702-89.674 55.711z"/><path d="m348.284 109.138c1.662 3.628 2.603 7.654 2.603 11.905v28.792h7.113c9.706 0 18.113 5.535 22.256 13.616v-54.314h-31.972z"/></g><g fill="#fb8801"><path d="m184.312 62.211c16.521-32.468 50.251-54.711 89.177-54.711h-41.744c-38.927 0-72.656 22.243-89.178 54.711z"/><path d="m154 149.835h7.114v-28.792c0-4.249.932-8.279 2.592-11.905h-31.961v54.314c4.142-8.082 12.55-13.617 22.255-13.617z"/></g><g><path d="m448.198 504.5h-384.395c-5.523 0-10-4.477-10-10v-144.509c0-24.853 20.147-45 45-45h314.396c24.853 0 45 20.147 45 45v144.509c-.001 5.523-4.478 10-10.001 10z" fill="#05e39c"/></g><g><path d="m107.605 494.5v-144.509c0-24.853 20.147-45 45-45h-53.802c-24.853 0-45 20.147-45 45v144.509c0 5.523 4.477 10 10 10h53.802c-5.523 0-10-4.477-10-10z" fill="#0ed290"/></g><path d="m293.904 280.204c-5.422 1.268-11.065 1.96-16.874 1.96h-42.06c-5.808 0-11.451-.692-16.873-1.959v24.786h-35.097l69.117 85.221c2.001 2.467 5.766 2.467 7.767 0l69.116-85.221h-35.096z" fill="#f6a96c"/><g><g><path d="m213 304.991h-30l69.117 85.221c2.001 2.467 5.766 2.467 7.767 0l11.117-13.707z" fill="#ea9b58"/></g></g><g fill="#f6a96c"><path d="m161.114 208.308v-58.473h-7.114c-13.807 0-25 11.193-25 25v21.165c0 13.807 11.193 25 25 25h8.223c-.715-4.126-1.109-8.362-1.109-12.692z"/><path d="m358 149.835h-7.114v58.473c0 4.33-.394 8.566-1.109 12.692h8.223c13.807 0 25-11.193 25-25v-21.165c0-13.807-11.192-25-25-25z"/></g><path d="m163.706 109.138c-1.66 3.627-2.592 7.656-2.592 11.905v87.265c0 40.789 33.066 73.856 73.856 73.856h42.061c40.79 0 73.856-33.066 73.856-73.856v-87.265c0-4.249-.932-8.279-2.592-11.905z" fill="#f6a96c"/><g><path d="m197.001 271.66v-37.22c-3.076-8.126-4.772-16.929-4.772-26.132v-87.265c0-4.249.932-8.279 2.592-11.905h-31.114c-1.66 3.627-2.592 7.656-2.592 11.905v87.265c0 26.905 14.391 50.443 35.892 63.355-.003-.001-.005-.002-.006-.003z" fill="#ea9b58"/></g><g><g><path d="m234.97 282.164h42.061c13.886 0 26.874-3.839 37.97-10.504v-60.66l-53.552-20.876c-3.504-1.366-7.393-1.366-10.896 0l-53.552 20.876v60.66c11.096 6.665 24.083 10.504 37.969 10.504z" fill="#eaf6ff"/></g><g><path d="m223 233.549c0-6.182 3.792-11.73 9.552-13.976l47.415-18.484c2.229-.869 4.605-1.207 6.953-1.036l-25.472-9.93c-3.504-1.366-7.393-1.366-10.896 0l-53.551 20.877v60.66c7.839 4.708 16.624 7.998 26 9.528v-47.639z" fill="#d8ecfe"/></g></g></g><g><g><path d="m172 405h-16.5c-1.657 0-3-1.343-3-3v-16.5c0-1.657-1.343-3-3-3h-19c-1.657 0-3 1.343-3 3v16.5c0 1.657-1.343 3-3 3h-16.5c-1.657 0-3 1.343-3 3v19c0 1.657 1.343 3 3 3h16.5c1.657 0 3 1.343 3 3v16.5c0 1.657 1.343 3 3 3h19c1.657 0 3-1.343 3-3v-16.5c0-1.657 1.343-3 3-3h16.5c1.657 0 3-1.343 3-3v-19c0-1.657-1.343-3-3-3z" fill="#26a6fe"/></g><g><g><path d="m404 459h-86c-1.657 0-3-1.343-3-3v-54c0-1.657 1.343-3 3-3h86c1.657 0 3 1.343 3 3v54c0 1.657-1.343 3-3 3z" fill="#fff"/></g><g><path d="m345 456v-54c0-1.657 1.343-3 3-3h-30c-1.657 0-3 1.343-3 3v54c0 1.657 1.343 3 3 3h30c-1.656 0-3-1.343-3-3z" fill="#f3f0f3"/></g></g></g><g><g><path d="m382.497 62.211h-252.993c-14.085 0-25.504 11.419-25.504 25.504v21.423h304v-21.423c0-14.085-11.418-25.504-25.503-25.504z" fill="#26a6fe"/></g><g><path d="m179.504 62.211h-50c-14.085 0-25.504 11.419-25.504 25.504v21.423h50v-21.423c0-14.085 11.419-25.504 25.504-25.504z" fill="#0593fc"/></g></g><g><path d="m232 235.5h48c4.143 0 7.5-3.357 7.5-7.5s-3.357-7.5-7.5-7.5h-48c-4.143 0-7.5 3.357-7.5 7.5s3.358 7.5 7.5 7.5z"/><path d="m287.5 253c0-4.143-3.357-7.5-7.5-7.5h-48c-4.143 0-7.5 3.357-7.5 7.5s3.357 7.5 7.5 7.5h48c4.143 0 7.5-3.357 7.5-7.5z"/><path d="m211 146.5c-4.143 0-7.5 3.357-7.5 7.5v18.092c0 4.143 3.357 7.5 7.5 7.5s7.5-3.357 7.5-7.5v-18.092c0-4.143-3.357-7.5-7.5-7.5z"/><path d="m301 179.592c4.143 0 7.5-3.357 7.5-7.5v-18.092c0-4.143-3.357-7.5-7.5-7.5s-7.5 3.357-7.5 7.5v18.092c0 4.142 3.358 7.5 7.5 7.5z"/><path d="m130.5 460h19c5.79 0 10.5-4.71 10.5-10.5v-12h12c5.79 0 10.5-4.71 10.5-10.5v-19c0-5.79-4.71-10.5-10.5-10.5h-12v-12c0-5.79-4.71-10.5-10.5-10.5h-19c-5.79 0-10.5 4.71-10.5 10.5v12h-12c-5.79 0-10.5 4.71-10.5 10.5v19c0 5.79 4.71 10.5 10.5 10.5h12v12c0 5.79 4.71 10.5 10.5 10.5zm-18-37.5v-10h12c5.79 0 10.5-4.71 10.5-10.5v-12h10v12c0 5.79 4.71 10.5 10.5 10.5h12v10h-12c-5.79 0-10.5 4.71-10.5 10.5v12h-10v-12c0-5.79-4.71-10.5-10.5-10.5z"/><path d="m307.5 402v54c0 5.79 4.71 10.5 10.5 10.5h86c5.79 0 10.5-4.71 10.5-10.5v-54c0-5.79-4.71-10.5-10.5-10.5h-86c-5.79 0-10.5 4.71-10.5 10.5zm15 4.5h77v45h-77z"/><path d="m376 383.5c4.143 0 7.5-3.357 7.5-7.5s-3.357-7.5-7.5-7.5h-30c-4.143 0-7.5 3.357-7.5 7.5s3.357 7.5 7.5 7.5z"/><path d="m458.198 434.5c4.143 0 7.5-3.357 7.5-7.5v-77.009c0-28.948-23.552-52.5-52.5-52.5h-5.86c5.216-10.53 8.163-22.375 8.163-34.9v-174.876c0-18.198-14.806-33.004-33.004-33.004h-8.639c-18.476-32.631-53.502-54.711-93.602-54.711h-48.512c-40.1 0-75.126 22.08-93.601 54.711h-8.639c-18.198 0-33.004 14.806-33.004 33.004v130.285c0 4.143 3.357 7.5 7.5 7.5s7.5-3.357 7.5-7.5v-101.362h12.744v45.148c-1.76 3.997-2.744 8.409-2.744 13.05v21.164c0 17.921 14.579 32.5 32.5 32.5h2.153c6.986 27.255 27.777 49.031 54.444 57.425v11.566h-88.685c-6.573-10.042-10.412-22.028-10.412-34.9v-9.591c0-4.143-3.357-7.5-7.5-7.5s-7.5 3.357-7.5 7.5v9.591c0 12.525 2.947 24.37 8.163 34.9h-5.861c-28.948 0-52.5 23.552-52.5 52.5v144.509c0 9.649 7.851 17.5 17.5 17.5h384.396c9.649 0 17.5-7.851 17.5-17.5v-32.5c0-4.143-3.357-7.5-7.5-7.5s-7.5 3.357-7.5 7.5v32.5c0 1.379-1.121 2.5-2.5 2.5h-384.396c-1.379 0-2.5-1.121-2.5-2.5v-144.509c0-20.678 16.822-37.5 37.5-37.5h15.532c14.483 17.693 36.48 29.009 61.075 29.009h27.544l43.34 53.437c2.384 2.939 5.922 4.626 9.708 4.626 3.784 0 7.323-1.687 9.708-4.626l43.338-53.437h27.543c24.595 0 46.593-11.315 61.075-29.009h15.531c20.678 0 37.5 16.822 37.5 37.5v77.009c.002 4.143 3.359 7.5 7.502 7.5zm-321.698-238.5v-21.165c0-9.519 7.644-17.272 17.114-17.48v50.953c0 1.742.074 3.467.182 5.182-9.554-.111-17.296-7.909-17.296-17.49zm17.115-74.957v21.302c-5.168.061-10.046 1.334-14.37 3.548v-29.255h14.644c-.179 1.444-.274 2.913-.274 4.405zm35.885 135.526c-12.844-12.108-20.886-29.259-20.886-48.261v-24.615l20.886 29.682zm-20.885-98.944v-36.582c0-1.512.171-2.983.475-4.405h173.822c.304 1.422.475 2.893.475 4.405v36.582l-31.138 44.252-48.075-18.74c-.222-.086-.449-.148-.673-.227v-19.353c0-4.143-3.357-7.5-7.5-7.5s-7.5 3.357-7.5 7.5v19.353c-.223.079-.45.14-.672.227l-48.076 18.741zm174.771 26.067v24.615c0 19.003-8.042 36.153-20.886 48.261v-43.194zm-138.886 83.533v-51.099l48.776-19.015c1.756-.684 3.69-.685 5.448.001l48.775 19.014v51.099c-9.132 4.742-19.489 7.439-30.47 7.439h-42.059c-10.981 0-21.338-2.697-30.47-7.439zm-29.09 59.275c-15.067 0-28.924-5.254-39.861-14.009h43.878l11.362 14.009zm80.591 56.594-33.734-41.594h67.468zm45.899-56.594h-91.798l-11.362-14.009h19.357c4.143 0 7.5-3.357 7.5-7.5v-15.88c3.077.355 6.202.553 9.373.553h42.061c3.171 0 6.296-.198 9.374-.553v15.88c0 4.143 3.357 7.5 7.5 7.5h19.356zm34.691 0h-15.378l11.361-14.009h43.878c-10.937 8.755-24.793 14.009-39.861 14.009zm63.909-63.909c0 12.872-3.838 24.859-10.412 34.9h-88.684v-11.567c26.667-8.394 47.456-30.17 54.443-57.425h2.153c17.921 0 32.5-14.579 32.5-32.5v-21.165c0-4.64-.984-9.053-2.744-13.05v-45.148h12.744zm-27.744-116.699c-4.324-2.213-9.202-3.487-14.37-3.548v-21.302c0-1.492-.096-2.961-.273-4.405h14.644v29.255zm2.744 28.943v21.165c0 9.581-7.742 17.379-17.297 17.49.109-1.715.183-3.44.183-5.182v-50.953c9.47.208 17.114 7.961 17.114 17.48zm25-73.197h-289v-13.923c0-9.928 8.076-18.004 18.004-18.004h154.496c4.143 0 7.5-3.357 7.5-7.5s-3.357-7.5-7.5-7.5h-128.165c16.729-23.985 44.514-39.711 75.91-39.711h48.512c31.395 0 59.18 15.726 75.909 39.711h-37.166c-4.143 0-7.5 3.357-7.5 7.5s3.357 7.5 7.5 7.5h63.496c9.928 0 18.004 8.076 18.004 18.004z"/></g></g></svg>