<svg id="Capa_1" enable-background="new 0 0 512 512" height="512" viewBox="0 0 512 512" width="512" xmlns="http://www.w3.org/2000/svg"><g><path d="m128.138 10.278h-109.374c-10.347 0-18.764 8.417-18.764 18.764v63.662c0 10.346 8.417 18.763 18.764 18.763h1.583v12.956c0 4.142 3.357 7.5 7.5 7.5s7.5-3.358 7.5-7.5v-12.956h76.207v93.16h-76.207v-50.205c0-4.142-3.357-7.5-7.5-7.5s-7.5 3.358-7.5 7.5v294.196c0 29.281 23.822 53.103 53.104 53.103 29.281 0 53.104-23.822 53.104-53.103v-337.151h1.584c10.346 0 18.763-8.417 18.763-18.763v-63.662c-.002-10.347-8.419-18.764-18.764-18.764zm-16.584 209.349v174.999h-76.207v-174.999zm-38.104 267.095c-21.011 0-38.104-17.093-38.104-38.103v-38.993h76.207v38.993c.001 21.01-17.092 38.103-38.103 38.103zm9.498-461.444h17.339v71.189h-17.339zm-15 71.189h-17.279v-71.189h17.279zm-52.948-3.763v-63.662c0-2.075 1.688-3.764 3.764-3.764h16.905v71.189h-16.905c-2.076 0-3.764-1.688-3.764-3.763zm116.9 0c0 2.075-1.688 3.763-3.763 3.763h-12.851v-71.189h12.851c2.075 0 3.763 1.688 3.763 3.764z"/><path d="m66.373 264.391h21.414c4.143 0 7.5-3.358 7.5-7.5s-3.357-7.5-7.5-7.5h-21.414c-4.143 0-7.5 3.358-7.5 7.5s3.357 7.5 7.5 7.5z"/><path d="m66.373 309.85h21.414c4.143 0 7.5-3.358 7.5-7.5s-3.357-7.5-7.5-7.5h-21.414c-4.143 0-7.5 3.358-7.5 7.5s3.357 7.5 7.5 7.5z"/><path d="m87.787 340.308h-21.414c-4.143 0-7.5 3.358-7.5 7.5s3.357 7.5 7.5 7.5h21.414c4.143 0 7.5-3.358 7.5-7.5s-3.357-7.5-7.5-7.5z"/><path d="m310.686 10.278h-109.372c-10.347 0-18.764 8.417-18.764 18.764v63.662c0 10.346 8.417 18.763 18.764 18.763h1.583v337.151c0 29.281 23.822 53.103 53.104 53.103 29.281 0 53.103-23.822 53.103-53.103v-142.16c0-4.142-3.357-7.5-7.5-7.5s-7.5 3.358-7.5 7.5v88.168h-76.207v-174.999h76.207v56.831c0 4.142 3.357 7.5 7.5 7.5s7.5-3.358 7.5-7.5v-164.991h1.583c10.347 0 18.764-8.417 18.764-18.763v-63.662c-.001-10.347-8.418-18.764-18.765-18.764zm-46.586 86.189v-71.189h17.339v71.189zm-32.28 0v-71.189h17.28v71.189zm-34.27-3.763v-63.662c0-2.075 1.688-3.764 3.764-3.764h15.507v71.189h-15.507c-2.076 0-3.764-1.688-3.764-3.763zm96.553 316.922v38.993c0 21.01-17.093 38.103-38.103 38.103-21.011 0-38.104-17.093-38.104-38.103v-38.993zm0-204.999h-76.207v-93.16h76.207zm20.347-111.923c0 2.075-1.689 3.763-3.764 3.763h-14.248v-71.189h14.248c2.075 0 3.764 1.688 3.764 3.764z"/><path d="m270.337 249.391h-21.414c-4.143 0-7.5 3.358-7.5 7.5s3.357 7.5 7.5 7.5h21.414c4.143 0 7.5-3.358 7.5-7.5s-3.358-7.5-7.5-7.5z"/><path d="m270.337 294.85h-21.414c-4.143 0-7.5 3.358-7.5 7.5s3.357 7.5 7.5 7.5h21.414c4.143 0 7.5-3.358 7.5-7.5s-3.358-7.5-7.5-7.5z"/><path d="m270.337 340.308h-21.414c-4.143 0-7.5 3.358-7.5 7.5s3.357 7.5 7.5 7.5h21.414c4.143 0 7.5-3.358 7.5-7.5s-3.358-7.5-7.5-7.5z"/><path d="m493.236 10.278h-109.373c-10.347 0-18.764 8.417-18.764 18.764v63.662c0 10.346 8.417 18.763 18.764 18.763h1.583v337.151c0 29.281 23.822 53.103 53.104 53.103 29.281 0 53.103-23.822 53.103-53.103v-337.151h1.583c10.347 0 18.764-8.417 18.764-18.763v-63.662c0-10.347-8.417-18.764-18.764-18.764zm-46.215 86.189v-71.189h17.339v71.189zm-32.28 0v-71.189h17.279v71.189zm-34.641-3.763v-63.662c0-2.075 1.688-3.764 3.764-3.764h15.878v71.189h-15.878c-2.076 0-3.764-1.688-3.764-3.763zm96.553 301.922h-76.207v-174.999h76.207zm-38.103 92.096c-21.011 0-38.104-17.093-38.104-38.103v-38.993h76.207v38.993c0 21.01-17.092 38.103-38.103 38.103zm38.103-282.095h-76.207v-93.16h76.207zm20.347-111.923c0 2.075-1.689 3.763-3.764 3.763h-13.877v-71.189h13.877c2.075 0 3.764 1.688 3.764 3.764z"/><path d="m431.473 264.391h21.414c4.143 0 7.5-3.358 7.5-7.5s-3.357-7.5-7.5-7.5h-21.414c-4.143 0-7.5 3.358-7.5 7.5s3.357 7.5 7.5 7.5z"/><path d="m431.473 309.85h21.414c4.143 0 7.5-3.358 7.5-7.5s-3.357-7.5-7.5-7.5h-21.414c-4.143 0-7.5 3.358-7.5 7.5s3.357 7.5 7.5 7.5z"/><path d="m452.887 340.308h-21.414c-4.143 0-7.5 3.358-7.5 7.5s3.357 7.5 7.5 7.5h21.414c4.143 0 7.5-3.358 7.5-7.5s-3.358-7.5-7.5-7.5z"/></g></svg>