<svg fill="none" height="512" viewBox="0 0 24 24" width="512" xmlns="http://www.w3.org/2000/svg" xmlns:xlink="http://www.w3.org/1999/xlink"><clipPath id="clip0"><path d="m0 0h24v24h-24z"/></clipPath><g clip-path="url(#clip0)"><g clip-rule="evenodd" fill-rule="evenodd"><path d="m11.7986 3.17193c.2929.29289.2929.76777 0 1.06066l-7.56615 7.56621c-.29289.2929-.76776.2929-1.06066 0-.29289-.2929-.29289-.7678 0-1.0607l7.56621-7.56617c.2929-.29289.7677-.29289 1.0606 0z" fill="#486472"/><path d="m13.1498 1.28031c-.7406-.740609-1.9414-.740609-2.682 0-.7406.74061-.7406 1.94138 0 2.68199l.5405.54044c.7406.74061 1.9413.74061 2.6819 0s.7406-1.94138 0-2.68199z" fill="#90a7b2"/><path d="m3.9623 10.4681c-.74061-.74066-1.94138-.74065-2.68199 0-.74061.7406-.740608 1.9413 0 2.6819l.54044.5405c.74061.7406 1.94138.7406 2.68199 0s.74061-1.9414 0-2.682z" fill="#90a7b2"/><path d="m19.7937 3.88383c-1.0739-1.07395-2.8151-1.07395-3.8891 0l-12.02077 12.02077c-1.07395 1.074-1.07395 2.8152 0 3.8891l2.12132 2.1213c1.07394 1.074 2.81514 1.074 3.88908 0l12.02077-12.02077c1.074-1.07394 1.074-2.81514 0-3.88908z" fill="#e5e6e8"/></g><path d="m13.799 10.201c.4968-.49677 1.3022-.49677 1.799 0 .4968.4968.4968 1.3022 0 1.799l-1.799 1.799-1.799 1.799c-.4968.4968-1.3022.4968-1.799 0-.49677-.4968-.49677-1.3022 0-1.799l1.799-1.799z" fill="#90a7b2"/><g clip-rule="evenodd" fill-rule="evenodd"><path d="m13.2687 9.67055c.7896-.78967 2.0699-.78967 2.8596 0 .7897.78965.7897 2.06995 0 2.85965l-3.598 3.598c-.7896.7897-2.07.7897-2.85962 0-.78967-.7897-.78967-2.07 0-2.8597zm1.799 1.06065c-.2039-.2039-.5345-.2039-.7384 0l-1.2686 1.2687.7383.7383 1.2687-1.2687c.2038-.2038.2038-.5344 0-.7383zm-2.3294 3.0677-.7383-.7384-1.2687 1.2687c-.2038.2039-.2038.5344 0 .7383.2039.2039.5345.2039.7384 0z" fill="#bcbcbc"/><path d="m19.0866 6.71227c-.6835-.68342-1.7915-.68342-2.4749 0s-.6834 1.79146 0 2.47487c.6834.68342 1.7914.68342 2.4749 0 .6834-.68341.6834-1.79145 0-2.47487z" fill="#bcbcbc"/><path d="m9.18714 16.6119c-.68341-.6834-1.79145-.6834-2.47487 0s-.68342 1.7915 0 2.4749 1.79146.6834 2.47487 0c.68342-.6834.68342-1.7915 0-2.4749z" fill="#bcbcbc"/><g fill="#000"><path d="m10.4678 1.28045c.7407-.740614 1.9414-.740614 2.682 0l.5405.54044c.7406.74061.7406 1.94137 0 2.68198s-1.9414.74061-2.682 0l-.5405-.54044c-.74056-.74061-.74057-1.94137 0-2.68198zm1.6214 1.06066c-.1549-.15483-.4059-.15483-.5607 0-.1548.15482-.1548.40584 0 .56066l.5404.54044c.1549.15483.4059.15483.5607 0 .1548-.15482.1548-.40584 0-.56066z"/><path d="m1.28034 10.4682c.74061-.74062 1.94138-.74062 2.68199 0l.54044.5404c.74061.7406.74061 1.9414 0 2.682s-1.94137.7406-2.68198 0l-.54044-.5404c-.740614-.7406-.740615-1.9414-.00001-2.682zm1.62133 1.0607c-.15482-.1549-.40584-.1549-.56066 0-.15483.1548-.15483.4058 0 .5606l.54044.5405c.15482.1548.40584.1548.56066 0 .15483-.1549.15483-.4059 0-.5607z"/><path d="m11.7989 3.17218c.2929.29289.2929.76776 0 1.06066l-7.5662 7.56616c-.2929.2929-.76777.2929-1.06066 0-.2929-.2929-.2929-.7677 0-1.0606l7.56616-7.56622c.2929-.2929.7678-.2929 1.0607 0z"/><path d="m15.9048 3.884c1.074-1.07395 2.8152-1.07394 3.8891 0l2.1213 2.12132c1.074 1.07394 1.074 2.81514 0 3.88908l-12.02079 12.0208c-1.07394 1.074-2.81514 1.074-3.88908 0l-2.12132-2.1213c-1.07395-1.0739-1.07395-2.8151 0-3.8891zm2.8284 1.06066c-.4881-.48816-1.2796-.48816-1.7677 0l-12.02083 12.02084c-.48816.4881-.48816 1.2796 0 1.7677l2.12132 2.1214c.48815.4881 1.27961.4881 1.76776 0l12.02085-12.02086c.4881-.48815.4881-1.27961 0-1.76776z"/><path d="m13.2687 9.67079c.7896-.78967 2.0699-.78967 2.8596 0 .7897.78971.7897 2.07001 0 2.85961l-3.598 3.598c-.7896.7897-2.07.7897-2.85962 0-.78967-.7896-.78967-2.07 0-2.8596zm1.799 1.06071c-.2039-.2039-.5345-.2039-.7384 0l-1.2686 1.2686.7383.7383 1.2687-1.2686c.2038-.2039.2038-.5345 0-.7383zm-2.3294 3.0676-.7383-.7383-1.2687 1.2686c-.2038.2039-.2038.5345 0 .7384.2039.2038.5345.2038.7384 0z"/><path d="m19.0868 6.71227c-.6834-.68342-1.7915-.68342-2.4749 0s-.6834 1.79146 0 2.47487c.6834.68342 1.7915.68342 2.4749 0 .6834-.68341.6834-1.79145 0-2.47487z"/><path d="m9.18739 16.6119c-.68342-.6834-1.79146-.6834-2.47488 0-.68341.6834-.68341 1.7915 0 2.4749.68342.6834 1.79146.6834 2.47488 0s.68342-1.7915 0-2.4749z"/></g></g></g></svg>