<svg id="Capa_1" enable-background="new 0 0 512 512" height="512" viewBox="0 0 512 512" width="512" xmlns="http://www.w3.org/2000/svg"><path d="m286.645 93.481v146.766c0 28.76 9.633 56.692 27.361 79.338 9.815 12.538 15.148 28.002 15.148 43.925v148.485h87.109 32.805v-161.042c0-17.864 7.669-34.869 21.064-46.688 8.269-7.296 17.029-14.996 22.315-19.557 9.755-8.608 15.344-20.991 15.344-34.001v-61.521c0-14.661-11.885-26.547-26.546-26.547-2.739 0-5.38.415-7.866 1.186v-111.958c0-12.656-9.841-23.436-22.49-23.886-13.279-.473-24.193 10.152-24.193 23.326v-27.961c0-13.174-10.913-23.798-24.192-23.326-12.648.449-22.49 11.229-22.491 23.885v13.565c0-13.174-10.913-23.798-24.193-23.326-12.649.45-22.49 11.229-22.491 23.886v54.892c0-13.174-10.913-23.798-24.193-23.326-12.649.449-22.491 11.228-22.491 23.885z" fill="#d78878"/><g fill="#ca6e59"><path d="m416.263 286.25c4.203 0 7.609-3.407 7.609-7.609 0-9.061 7.371-16.432 16.431-16.432 12.132 0 22.003-9.871 22.003-22.003v-24.766c0-4.202-3.406-7.609-7.609-7.609s-7.609 3.407-7.609 7.609v24.767c0 3.741-3.044 6.785-6.785 6.785-17.452 0-31.649 14.198-31.649 31.649 0 4.203 3.406 7.609 7.609 7.609z"/><path d="m380.012 23.902v164.142c0 4.877 3.954 8.831 8.831 8.831 4.877 0 8.831-3.954 8.831-8.831v-147.758c0-7.031.873-14.01 2.577-20.767 1.699-6.766 4.235-13.331 7.573-19.511-.003-.005-.002-.004-.005-.009h-4.454c-.284 0-.578.01-.862.02-12.65.448-22.491 11.232-22.491 23.883z"/><path d="m426.7 51.304v136.74c0 4.877 3.954 8.831 8.831 8.831 4.877 0 8.831-3.954 8.831-8.831v-123.42c0-7.02.873-14 2.577-20.767 1.36-5.407 3.246-10.683 5.661-15.745-.568-.071-1.136-.112-1.715-.132-13.28-.477-24.185 10.155-24.185 23.324z"/><path d="m333.325 38.034v150.01c0 4.877 3.954 8.831 8.831 8.831 4.877 0 8.831-3.954 8.831-8.831v-135.594c0-7.02.873-14 2.577-20.767 1.501-5.965 3.652-11.768 6.432-17.307-1.36-.203-2.759-.284-4.18-.233-12.641.446-22.491 11.23-22.491 23.891z"/><path d="m485.776 163.031c3.033 4.403 4.809 9.739 4.809 15.492v63.559c0 6.716-1.441 13.28-4.149 19.265-2.699 5.996-6.655 11.413-11.697 15.857-5.458 4.707-14.507 12.671-23.049 20.199-13.838 12.215-21.761 29.776-21.761 48.229v166.368h19.144v-161.042c0-17.865 7.67-34.868 21.061-46.688 8.268-7.304 17.033-15.004 22.319-19.56 4.88-4.301 8.714-9.557 11.322-15.35 2.617-5.803 4.017-12.144 4.017-18.657v-61.52c-.001-13.116-9.507-24.012-22.016-26.152z"/></g><path d="m202.864 69.595c-13.279-.472-24.193 10.153-24.193 23.326v-54.892c0-12.657-9.842-23.436-22.491-23.886-13.279-.472-24.193 10.153-24.193 23.326v-13.565c0-12.656-9.842-23.436-22.491-23.885-13.278-.471-24.191 10.153-24.191 23.327v27.961c0-13.174-10.914-23.799-24.193-23.326-12.648.45-22.49 11.23-22.49 23.886v111.958c-2.486-.77-5.127-1.186-7.866-1.186-14.661 0-26.546 11.885-26.546 26.547v61.521c0 13.01 5.588 25.394 15.344 34.001 5.286 4.561 14.046 12.261 22.315 19.557 13.395 11.819 21.064 28.824 21.064 46.688v161.042h32.805 87.109v-148.485c0-15.923 5.333-31.387 15.148-43.925 17.728-22.646 27.361-50.578 27.361-79.338v-146.766c-.001-12.657-9.843-23.436-22.492-23.886z" fill="#d78878"/><path d="m225.353 93.486v146.76c0 28.761-9.63 56.692-27.36 79.336-4.905 6.277-8.689 13.274-11.252 20.703-2.563 7.418-3.894 15.267-3.894 23.225v148.486h-19.461v-148.487c0-7.959 1.331-15.807 3.894-23.225 2.563-7.428 6.347-14.426 11.252-20.703 17.729-22.644 27.36-50.575 27.36-79.336v-146.759c0-9.51-5.546-17.95-13.655-21.764 3.214-1.482 6.827-2.262 10.632-2.122 12.643.44 22.484 11.222 22.484 23.886z" fill="#ca6e59"/><path d="m95.737 286.25c-4.203 0-7.609-3.407-7.609-7.609 0-9.061-7.371-16.432-16.431-16.432-12.132 0-22.003-9.871-22.003-22.003v-24.766c0-4.202 3.406-7.609 7.609-7.609s7.609 3.407 7.609 7.609v24.767c0 3.741 3.044 6.785 6.785 6.785 17.452 0 31.649 14.198 31.649 31.649 0 4.203-3.406 7.609-7.609 7.609z" fill="#ca6e59"/><path d="m131.988 23.902v164.142c0 4.877-3.954 8.831-8.831 8.831-4.877 0-8.831-3.954-8.831-8.831v-147.758c0-7.031-.873-14.01-2.577-20.767-1.699-6.766-4.235-13.331-7.573-19.511.003-.005.002-.004.005-.009h4.454c.284 0 .578.01.862.02 12.65.448 22.491 11.232 22.491 23.883z" fill="#ca6e59"/><path d="m85.3 51.304v136.74c0 4.877-3.954 8.831-8.831 8.831-4.877 0-8.831-3.954-8.831-8.831v-123.42c0-7.02-.873-14-2.577-20.767-1.36-5.407-3.246-10.683-5.661-15.745.568-.071 1.136-.112 1.715-.132 13.28-.477 24.185 10.155 24.185 23.324z" fill="#ca6e59"/><path d="m178.675 38.034v150.01c0 4.877-3.954 8.831-8.831 8.831-4.877 0-8.831-3.954-8.831-8.831v-135.594c0-7.02-.873-14-2.577-20.767-1.501-5.965-3.652-11.768-6.432-17.307 1.36-.203 2.759-.284 4.18-.233 12.641.446 22.491 11.23 22.491 23.891z" fill="#ca6e59"/><circle cx="256" cy="187.626" fill="#fff2e2" r="137.374"/><path d="m393.37 187.63c0 75.87-61.5 137.37-137.37 137.37-42.88 0-81.17-19.65-106.37-50.43 24.07 20.8 55.45 33.39 89.77 33.39 75.87 0 137.38-61.51 137.38-137.38 0-33-11.64-63.29-31.04-86.97 29.17 25.2 47.63 62.45 47.63 104.02z" fill="#fee8c7"/><path d="m334.179 150.97h-26.048c-8.547 0-15.475-6.928-15.475-15.475v-26.048c0-8.547-6.928-15.475-15.475-15.475h-42.363c-8.547 0-15.475 6.928-15.475 15.475v26.048c0 8.547-6.928 15.475-15.475 15.475h-26.048c-8.547 0-15.475 6.928-15.475 15.475v42.363c0 8.547 6.928 15.475 15.475 15.475h26.048c8.547 0 15.475 6.928 15.475 15.475v26.048c0 8.547 6.928 15.475 15.475 15.475h42.363c8.547 0 15.475-6.928 15.475-15.475v-26.048c0-8.547 6.928-15.475 15.475-15.475h26.048c8.547 0 15.475-6.928 15.475-15.475v-42.363c0-8.547-6.928-15.475-15.475-15.475z" fill="#fd4755"/><path d="m349.65 166.44v42.37c0 8.54-6.92 15.47-15.47 15.47h-26.05c-8.544 0-15.47 6.926-15.47 15.47v26.06c0 8.54-6.93 15.47-15.48 15.47h-20.12c8.55 0 15.47-6.93 15.47-15.47v-29.006c0-16.748 13.577-30.324 30.324-30.324h19.646c3.89 0 7.03-3.15 7.03-7.03v-24.45c0-3.88-3.14-7.03-7.03-7.03-3.278 0-6.555 0-9.833 0-9.97 0-21.611.425-30.131-5.652-9.39-6.697-10.911-19.196-10.909-29.832.001-7.689.903-15.348.902-23.037-.001-8.549-6.921-15.478-15.47-15.478h20.12c8.549 0 15.48 6.931 15.48 15.48v26.04c0 8.549 6.931 15.48 15.48 15.48h26.04c8.551-.001 15.471 6.929 15.471 15.469z" fill="#fb2b3a"/></svg>